<?xml version="1.0" standalone="no"?>
<!DOCTYPE svg PUBLIC "-//W3C//DTD SVG 20010904//EN"
 "http://www.w3.org/TR/2001/REC-SVG-20010904/DTD/svg10.dtd">
<svg version="1.0" xmlns="http://www.w3.org/2000/svg"
 width="1664.000000pt" height="458.000000pt" viewBox="0 0 1664.000000 458.000000"
 preserveAspectRatio="xMidYMid meet">

<g transform="translate(0.000000,458.000000) scale(0.100000,-0.100000)"
fill="#000000" stroke="none">
<path d="M6080 3401 l0 -268 -37 35 c-127 119 -346 102 -465 -37 -84 -99 -121
-225 -122 -416 0 -308 123 -483 353 -502 96 -8 167 16 236 79 30 27 56 45 58
41 3 -4 8 -29 12 -55 l7 -48 114 0 114 0 0 720 0 720 -135 0 -135 0 0 -269z
m-107 -372 c20 -5 53 -26 72 -45 l35 -35 0 -223 0 -224 -34 -30 c-45 -39 -97
-55 -158 -50 -65 7 -97 31 -133 103 -29 58 -30 65 -29 190 0 99 4 142 18 180
44 122 118 165 229 134z"/>
<path d="M8210 3570 l0 -100 135 0 135 0 0 100 0 100 -135 0 -135 0 0 -100z"/>
<path d="M11542 3574 c-184 -49 -318 -188 -367 -379 -21 -84 -21 -493 0 -584
22 -92 70 -177 141 -247 114 -114 254 -160 449 -150 61 3 137 13 170 22 81 21
185 77 240 128 l45 42 0 262 0 262 -265 0 -265 0 0 -90 0 -90 130 0 131 0 -3
-137 -3 -137 -49 -25 c-40 -21 -67 -26 -146 -29 -82 -4 -104 -1 -147 18 -61
26 -103 67 -140 140 l-28 55 0 265 0 265 26 56 c31 65 80 117 135 144 52 26
174 26 224 1 73 -37 120 -105 120 -171 l0 -35 131 0 132 0 -6 67 c-12 122 -83
235 -189 297 -103 60 -335 86 -466 50z"/>
<path d="M4655 3568 c-29 -81 -445 -1323 -445 -1329 0 -5 62 -9 138 -9 l138 0
44 145 44 145 220 -2 220 -3 45 -142 44 -143 139 0 c76 0 138 3 138 8 0 4
-101 306 -224 672 l-224 665 -136 3 c-104 2 -138 0 -141 -10z m221 -610 c37
-120 65 -220 62 -223 -3 -3 -70 -4 -150 -3 l-145 3 73 230 c40 127 73 232 74
235 2 16 25 -49 86 -242z"/>
<path d="M7019 3236 c-59 -16 -130 -58 -162 -96 -14 -16 -28 -30 -31 -30 -3 0
-6 17 -6 38 0 84 3 82 -136 82 l-124 0 0 -500 0 -500 135 0 135 0 0 366 0 366
30 28 c56 53 163 63 220 22 54 -40 55 -49 58 -429 l3 -353 134 0 135 0 0 361
0 362 35 33 c79 74 199 68 252 -13 16 -24 18 -63 21 -385 l3 -358 135 0 135 0
-3 373 c-4 411 -6 428 -71 523 -109 163 -378 161 -503 -3 l-32 -42 -28 45
c-64 101 -201 146 -335 110z"/>
<path d="M8980 3239 c-172 -29 -290 -151 -290 -298 1 -156 95 -239 336 -297
150 -36 201 -64 218 -121 10 -33 -18 -89 -54 -108 -46 -24 -160 -23 -203 2
-39 23 -77 77 -77 109 0 24 0 24 -125 24 -124 0 -125 0 -125 -23 0 -56 31
-127 79 -179 60 -66 128 -104 218 -123 222 -47 448 26 517 168 36 72 42 131
22 200 -33 112 -127 174 -346 228 -149 36 -177 50 -196 95 -30 72 35 144 129
144 74 0 116 -25 141 -82 l20 -48 129 0 130 0 -6 45 c-9 65 -39 116 -97 168
-97 88 -253 123 -420 96z"/>
<path d="M9980 3239 c-69 -12 -152 -50 -206 -94 -50 -41 -94 -124 -94 -177 l0
-38 130 0 130 0 0 24 c0 31 32 70 70 86 18 7 53 11 86 8 90 -8 133 -67 134
-184 l0 -42 -152 -4 c-235 -8 -347 -54 -412 -168 -28 -50 -31 -63 -31 -140 0
-73 4 -93 28 -142 48 -97 124 -143 258 -155 114 -10 206 30 279 122 l29 36 11
-43 c6 -24 16 -55 22 -70 l10 -28 132 0 132 0 -17 68 c-15 55 -18 113 -18 332
-1 146 -6 294 -12 330 -20 127 -91 212 -215 256 -76 28 -209 38 -294 23z m250
-641 c0 -62 -4 -76 -26 -106 -40 -51 -121 -86 -192 -80 -47 4 -60 10 -84 37
-62 69 -19 181 81 211 14 5 70 9 124 9 l97 1 0 -72z"/>
<path d="M12848 3236 c-59 -21 -85 -42 -121 -96 l-34 -51 -7 71 -7 70 -125 0
-124 0 0 -500 0 -500 135 0 135 0 0 340 c0 381 -1 374 71 411 28 14 59 19 112
19 l74 0 13 115 c7 64 10 118 7 122 -13 12 -94 12 -129 -1z"/>
<path d="M13410 3240 c-181 -33 -306 -153 -355 -345 -18 -70 -20 -241 -4 -317
28 -130 115 -256 217 -311 149 -81 380 -71 516 22 234 161 265 617 58 827
-106 107 -266 153 -432 124z m204 -234 c71 -53 103 -164 93 -320 -6 -110 -33
-181 -83 -226 -42 -36 -69 -44 -140 -38 -68 6 -100 28 -139 99 -30 53 -30 56
-30 205 0 147 1 152 30 209 24 46 40 64 75 83 62 33 142 28 194 -12z"/>
<path d="M15632 3233 c-36 -11 -71 -32 -107 -65 l-53 -49 -7 56 -7 55 -124 0
-124 0 0 -690 0 -690 135 0 135 0 0 237 0 237 33 -32 c57 -55 120 -77 222 -77
82 0 97 3 157 33 150 74 222 228 221 472 0 182 -42 319 -127 417 -79 90 -235
133 -354 96z m98 -215 c62 -32 97 -101 112 -224 19 -161 -17 -303 -91 -351
-65 -43 -191 -26 -246 33 l-25 27 0 222 0 222 34 34 c63 61 142 74 216 37z"/>
<path d="M8210 2730 l0 -500 135 0 135 0 0 500 0 500 -135 0 -135 0 0 -500z"/>
<path d="M14140 2900 c0 -263 3 -347 16 -407 27 -131 76 -203 172 -250 50 -25
68 -28 147 -27 120 1 186 32 254 118 34 42 33 44 49 -54 l8 -45 112 -3 112 -3
0 501 0 500 -135 0 -135 0 0 -369 0 -370 -26 -20 c-76 -59 -200 -68 -253 -17
-46 44 -51 86 -51 445 l0 331 -135 0 -135 0 0 -330z"/>
<path d="M6030 1900 l0 -50 50 0 50 0 0 50 0 50 -50 0 -50 0 0 -50z"/>
<path d="M9930 1565 l0 -385 50 0 50 0 0 385 0 385 -50 0 -50 0 0 -385z"/>
<path d="M11112 1903 l3 -48 48 -3 47 -3 0 50 0 51 -51 0 -50 0 3 -47z"/>
<path d="M8850 1890 c-85 -40 -123 -93 -123 -175 0 -104 57 -160 212 -209 108
-34 138 -51 161 -89 59 -96 -29 -191 -159 -173 -75 10 -141 67 -141 121 0 11
-11 15 -50 15 l-49 0 6 -32 c14 -77 71 -136 156 -164 75 -25 200 -16 260 19
62 37 92 87 92 157 0 100 -68 172 -198 211 -163 49 -213 97 -188 179 19 63 88
95 172 80 50 -9 106 -62 116 -110 5 -28 9 -30 49 -30 42 0 44 1 44 30 0 60
-48 128 -115 163 -60 31 -185 35 -245 7z"/>
<path d="M4270 1541 l0 -361 178 0 c196 0 237 7 287 51 97 86 78 265 -34 315
l-40 17 39 38 c84 81 59 218 -48 271 -42 21 -63 23 -214 26 l-168 4 0 -361z
m323 268 c38 -20 57 -51 57 -99 0 -89 -49 -120 -190 -120 l-90 0 0 115 0 115
101 0 c55 0 110 -5 122 -11z m9 -299 c119 -34 134 -199 22 -246 -22 -9 -73
-14 -144 -14 l-110 0 0 135 0 135 98 0 c53 0 114 -5 134 -10z"/>
<path d="M10800 1785 l0 -65 -40 0 -40 0 0 -40 c0 -40 0 -40 39 -40 l39 0 4
-197 c3 -171 5 -202 21 -224 24 -36 64 -51 123 -47 49 3 49 3 49 38 0 33 -2
35 -35 38 -57 5 -60 16 -60 214 l0 178 50 0 50 0 0 40 0 40 -50 0 -50 0 0 65
0 65 -50 0 -50 0 0 -65z"/>
<path d="M5645 1720 c-93 -15 -146 -65 -153 -145 -4 -54 -3 -57 35 -93 28 -27
58 -43 104 -56 149 -42 169 -55 169 -109 0 -93 -196 -101 -225 -9 -9 30 -12
32 -57 32 -52 0 -56 -6 -37 -57 28 -74 99 -112 210 -113 131 0 204 55 204 155
0 43 -5 59 -25 80 -34 37 -87 62 -167 81 -83 19 -102 29 -113 60 -20 50 30
104 97 104 37 0 91 -34 103 -65 8 -22 16 -25 56 -25 l47 0 -7 31 c-18 90 -125
147 -241 129z"/>
<path d="M6515 1725 c-5 -2 -22 -6 -38 -9 -15 -4 -45 -23 -67 -42 l-40 -36 0
41 0 41 -45 0 -45 0 0 -270 0 -270 50 0 50 0 0 203 c0 202 0 204 24 226 49 46
150 46 192 0 17 -19 19 -41 22 -225 l3 -204 50 0 49 0 0 188 c0 248 -18 310
-100 340 -31 12 -92 21 -105 17z"/>
<path d="M7030 1720 c-52 -10 -94 -35 -129 -77 -42 -51 -61 -113 -61 -199 0
-127 51 -221 142 -258 60 -25 172 -21 236 9 56 26 61 37 34 73 l-18 24 -37
-22 c-51 -30 -132 -36 -177 -13 -41 21 -80 90 -80 140 l0 33 176 0 176 0 -6
68 c-10 98 -48 169 -106 198 -52 26 -100 33 -150 24z m116 -101 c27 -25 49
-82 40 -105 -5 -12 -26 -14 -123 -12 l-118 3 4 25 c14 102 128 154 197 89z"/>
<path d="M7575 1725 c-5 -2 -27 -6 -48 -10 -74 -12 -150 -112 -131 -171 23
-71 51 -92 179 -129 98 -28 135 -54 135 -95 0 -94 -187 -107 -225 -15 -14 33
-18 35 -60 35 -39 0 -45 -3 -45 -20 0 -49 50 -108 112 -135 59 -24 175 -20
229 8 79 41 109 135 64 203 -24 37 -59 55 -163 85 -130 38 -160 75 -109 134
47 55 166 36 183 -30 6 -22 11 -25 55 -25 53 0 56 4 35 54 -17 41 -62 83 -101
95 -39 12 -97 20 -110 16z"/>
<path d="M8082 1719 c-98 -18 -157 -82 -149 -162 7 -75 50 -109 186 -145 97
-26 121 -44 121 -87 0 -64 -70 -100 -150 -76 -39 11 -80 51 -80 77 0 10 -14
14 -50 14 -57 0 -59 -5 -31 -67 12 -26 35 -52 62 -70 37 -24 54 -28 128 -31
74 -3 92 0 131 20 79 41 112 126 76 196 -19 36 -93 76 -181 98 -96 23 -115 36
-115 79 0 87 124 116 184 44 14 -17 26 -35 26 -40 0 -5 20 -9 45 -9 41 0 45 2
45 24 0 37 -41 89 -90 112 -55 27 -101 33 -158 23z"/>
<path d="M9510 1719 c-67 -13 -120 -55 -155 -124 -27 -52 -30 -68 -30 -150 0
-82 3 -98 30 -150 43 -84 94 -118 185 -123 81 -5 129 9 176 51 64 56 79 97 79
222 0 94 -3 116 -22 151 -51 96 -153 143 -263 123z m125 -93 c14 -9 34 -35 46
-59 31 -60 31 -184 0 -245 -39 -76 -111 -101 -181 -64 -49 27 -74 81 -78 174
-7 138 55 225 151 214 21 -2 49 -11 62 -20z"/>
<path d="M11530 1718 c-67 -12 -120 -54 -155 -123 -27 -52 -30 -68 -30 -150 0
-82 3 -98 30 -150 45 -88 94 -119 194 -123 87 -4 134 12 182 65 54 58 64 89
64 208 0 94 -3 116 -22 150 -53 99 -148 144 -263 123z m117 -88 c52 -31 77
-91 77 -185 1 -94 -21 -146 -74 -182 -69 -47 -149 -19 -188 65 -48 106 -15
268 62 306 42 21 85 20 123 -4z"/>
<path d="M12153 1718 c-26 -5 -57 -22 -77 -41 l-34 -33 -6 39 c-6 38 -7 38
-49 35 l-42 -3 -3 -267 -2 -268 50 0 50 0 0 199 0 198 26 27 c36 35 93 50 143
36 67 -18 71 -32 71 -260 l0 -200 50 0 50 0 0 199 c0 121 -4 211 -11 232 -29
86 -115 128 -216 107z"/>
<path d="M12705 1725 c-5 -2 -27 -6 -48 -10 -49 -8 -113 -65 -126 -112 -25
-91 18 -140 162 -184 111 -34 147 -58 147 -99 0 -94 -187 -107 -225 -15 -14
33 -18 35 -60 35 -39 0 -45 -3 -45 -20 0 -49 50 -108 112 -135 59 -24 175 -20
229 8 79 41 109 135 64 203 -24 37 -59 55 -163 85 -130 38 -160 75 -109 134
47 55 166 36 183 -30 6 -22 11 -25 55 -25 53 0 56 4 35 54 -17 41 -62 83 -101
95 -39 12 -97 20 -110 16z"/>
<path d="M4912 1503 c3 -197 5 -221 23 -252 31 -53 67 -74 134 -79 73 -5 123
10 156 49 22 26 25 28 25 11 0 -42 11 -52 56 -52 l44 0 -2 268 -3 267 -47 3
-48 3 0 -198 c0 -163 -3 -202 -16 -221 -46 -66 -172 -75 -212 -14 -14 22 -18
57 -21 229 l-3 203 -45 0 -44 0 3 -217z"/>
<path d="M6030 1450 l0 -270 50 0 50 0 0 270 0 270 -50 0 -50 0 0 -270z"/>
<path d="M10182 1513 c3 -192 5 -212 26 -254 29 -60 80 -89 157 -89 63 0 86 9
133 53 l32 31 0 -37 0 -37 45 0 45 0 0 270 0 270 -50 0 -50 0 0 -204 0 -204
-35 -31 c-51 -45 -133 -47 -175 -5 -25 24 -25 25 -28 234 l-3 210 -50 0 -50 0
3 -207z"/>
<path d="M11117 1713 c-4 -3 -7 -125 -7 -270 l0 -263 50 0 50 0 0 270 0 270
-43 0 c-24 0 -47 -3 -50 -7z"/>
</g>
</svg>
